HIERARCHY
ROOT newVegas:Hips
{
	OFFSET 0.000000 96.479958 0.000000
	CHANNELS 6 Xposition Yposition Zposition Xrotation Yrotation Zrotation
	JOINT newVegas:Pelvis
	{
		OFFSET 0.000000 0.000000 0.000000
		CHANNELS 3 Xrotation Yrotation Zrotation
		JOINT newVegas:LeftUpLeg
		{
			OFFSET 18.735201 -5.666702 -4.541200
			CHANNELS 3 Xrotation Yrotation Zrotation
			JOINT newVegas:LeftLeg
			{
				OFFSET -0.021200 -31.938179 0.493100
				CHANNELS 3 Xrotation Yrotation Zrotation
				JOINT newVegas:LeftFoot
				{
					OFFSET 0.021200 -31.938179 -4.336299
					CHANNELS 3 Xrotation Yrotation Zrotation
					JOINT newVegas:LeftToeBase
					{
						OFFSET 0.943001 -26.722000 15.023500
						CHANNELS 3 Xrotation Yrotation Zrotation
						End Site
						{
							OFFSET 0.000000 30.670183 0.000000
						}
					}
				}
				JOINT newVegas:Left_PantLeg
				{
					OFFSET 0.663870 -9.044666 -1.108900
					CHANNELS 3 Xrotation Yrotation Zrotation
					End Site
					{
						OFFSET 1.415995 20.635357 0.000000
					}
				}
			}
		}
		JOINT newVegas:RightUpLeg
		{
			OFFSET -18.735201 -5.666702 -4.541200
			CHANNELS 3 Xrotation Yrotation Zrotation
			JOINT newVegas:RightLeg
			{
				OFFSET 0.018946 -31.938133 0.493100
				CHANNELS 3 Xrotation Yrotation Zrotation
				JOINT newVegas:RightFoot
				{
					OFFSET -0.018946 -31.938126 -4.336299
					CHANNELS 3 Xrotation Yrotation Zrotation
					JOINT newVegas:RightToeBase
					{
						OFFSET -0.943001 -26.722004 15.023500
						CHANNELS 3 Xrotation Yrotation Zrotation
						End Site
						{
							OFFSET 0.000000 30.670187 0.000000
						}
					}
				}
				JOINT newVegas:Right_PantLeg
				{
					OFFSET -0.661674 -9.044716 -1.108900
					CHANNELS 3 Xrotation Yrotation Zrotation
					End Site
					{
						OFFSET -1.415958 20.635269 0.000000
					}
				}
			}
		}
	}
	JOINT newVegas:Spine
	{
		OFFSET 0.000000 10.199997 -0.299500
		CHANNELS 3 Xrotation Yrotation Zrotation
		JOINT newVegas:Spine1
		{
			OFFSET 0.000000 11.900002 -1.516600
			CHANNELS 3 Xrotation Yrotation Zrotation
			JOINT newVegas:Spine2
			{
				OFFSET 0.000000 13.600006 -2.842500
				CHANNELS 3 Xrotation Yrotation Zrotation
				JOINT newVegas:Neck
				{
					OFFSET 0.000000 9.624100 -2.890100
					CHANNELS 3 Xrotation Yrotation Zrotation
					JOINT newVegas:Head
					{
						OFFSET 0.000000 14.068802 -1.351900
						CHANNELS 3 Xrotation Yrotation Zrotation
						JOINT newVegas:Hair_Back
						{
							OFFSET 0.000000 3.231903 -17.524799
							CHANNELS 3 Xrotation Yrotation Zrotation
							End Site
							{
								OFFSET 0.000000 19.849884 0.000000
							}
						}
						JOINT newVegas:Hair_Front
						{
							OFFSET 0.000000 31.260406 4.573800
							CHANNELS 3 Xrotation Yrotation Zrotation
							JOINT newVegas:Hair_Front1
							{
								OFFSET 0.000000 2.284103 11.993300
								CHANNELS 3 Xrotation Yrotation Zrotation
								JOINT newVegas:Hair_Front2
								{
									OFFSET 0.000000 2.284103 11.993300
									CHANNELS 3 Xrotation Yrotation Zrotation
									End Site
									{
										OFFSET 0.000000 12.208862 0.000000
									}
								}
							}
						}
						JOINT newVegas:Jowel
						{
							OFFSET 0.000000 -7.458206 6.864100
							CHANNELS 3 Xrotation Yrotation Zrotation
							End Site
							{
								OFFSET 0.000000 19.849884 0.000000
							}
						}
					}
				}
				JOINT newVegas:LeftShoulder
				{
					OFFSET 15.263000 10.923401 -0.547700
					CHANNELS 3 Xrotation Yrotation Zrotation
					JOINT newVegas:LeftArm
					{
						OFFSET 25.438599 -2.830597 -13.032500
						CHANNELS 3 Xrotation Yrotation Zrotation
						JOINT newVegas:LeftForeArm
						{
							OFFSET 29.960503 0.000000 0.000000
							CHANNELS 3 Xrotation Yrotation Zrotation
							JOINT newVegas:LeftHand
							{
								OFFSET 27.849251 0.000000 0.000000
								CHANNELS 3 Xrotation Yrotation Zrotation
								JOINT newVegas:LeftHandThumb1
								{
									OFFSET 4.487587 -3.305161 6.305391
									CHANNELS 3 Xrotation Yrotation Zrotation
									JOINT newVegas:LeftHandThumb2
									{
										OFFSET 5.480453 -3.164139 3.164143
										CHANNELS 3 Xrotation Yrotation Zrotation
										JOINT newVegas:LeftHandThumb3
										{
											OFFSET 5.159721 -2.978973 2.978967
											CHANNELS 3 Xrotation Yrotation Zrotation
											End Site
											{
												OFFSET 2.494507 5.926697 1.738678
											}
										}
									}
								}
								JOINT newVegas:LeftHandIndex1
								{
									OFFSET 18.578728 -0.527832 5.208049
									CHANNELS 3 Xrotation Yrotation Zrotation
									JOINT newVegas:LeftHandIndex2
									{
										OFFSET 3.192009 0.000000 0.000000
										CHANNELS 3 Xrotation Yrotation Zrotation
										JOINT newVegas:LeftHandIndex3
										{
											OFFSET 3.835129 0.000000 0.000000
											CHANNELS 3 Xrotation Yrotation Zrotation
											End Site
											{
												OFFSET -0.034599 3.816971 0.371180
											}
										}
									}
								}
								JOINT newVegas:LeftHandMiddle1
								{
									OFFSET 18.476105 0.000000 0.000000
									CHANNELS 3 Xrotation Yrotation Zrotation
									JOINT newVegas:LeftHandMiddle2
									{
										OFFSET 3.324875 0.000000 0.000000
										CHANNELS 3 Xrotation Yrotation Zrotation
										JOINT newVegas:LeftHandMiddle3
										{
											OFFSET 4.596550 0.000000 0.000000
											CHANNELS 3 Xrotation Yrotation Zrotation
											End Site
											{
												OFFSET 0.057701 4.578827 0.399218
											}
										}
									}
								}
								JOINT newVegas:LeftHandRing1
								{
									OFFSET 17.732719 0.121887 -4.201567
									CHANNELS 3 Xrotation Yrotation Zrotation
									JOINT newVegas:LeftHandRing2
									{
										OFFSET 2.733170 0.000000 0.000000
										CHANNELS 3 Xrotation Yrotation Zrotation
										JOINT newVegas:LeftHandRing3
										{
											OFFSET 3.178268 0.000000 0.000000
											CHANNELS 3 Xrotation Yrotation Zrotation
											End Site
											{
												OFFSET 0.119102 3.170624 0.185394
											}
										}
									}
								}
								JOINT newVegas:LeftHandPinky1
								{
									OFFSET 15.989624 -0.606689 -7.535461
									CHANNELS 3 Xrotation Yrotation Zrotation
									JOINT newVegas:LeftHandPinky2
									{
										OFFSET 2.538986 0.000000 0.000000
										CHANNELS 3 Xrotation Yrotation Zrotation
										JOINT newVegas:LeftHandPinky3
										{
											OFFSET 2.593102 0.000000 0.000000
											CHANNELS 3 Xrotation Yrotation Zrotation
											End Site
											{
												OFFSET -0.150902 2.584198 0.152708
											}
										}
									}
								}
							}
							JOINT newVegas:Left_Sleeve
							{
								OFFSET 0.267448 -0.649796 0.577675
								CHANNELS 3 Xrotation Yrotation Zrotation
								End Site
								{
									OFFSET 0.000000 15.991241 0.000000
								}
							}
							JOINT newVegas:Left_CapeC
							{
								OFFSET 15.715958 -8.608795 -6.935905
								CHANNELS 3 Xrotation Yrotation Zrotation
								JOINT newVegas:Left_CapeC1
								{
									OFFSET 0.000000 -8.688499 0.000000
									CHANNELS 3 Xrotation Yrotation Zrotation
									End Site
									{
										OFFSET 0.000000 8.688499 0.000000
									}
								}
							}
						}
						JOINT newVegas:Left_CapeB
						{
							OFFSET 26.118385 -8.608795 -7.079235
							CHANNELS 3 Xrotation Yrotation Zrotation
							JOINT newVegas:Left_CapeB1
							{
								OFFSET 0.000000 -8.688499 0.000000
								CHANNELS 3 Xrotation Yrotation Zrotation
								End Site
								{
									OFFSET 0.000000 8.688499 0.000000
								}
							}
						}
						JOINT newVegas:Left_CapeA
						{
							OFFSET 5.115639 -8.608795 -10.395809
							CHANNELS 3 Xrotation Yrotation Zrotation
							JOINT newVegas:Left_CapeA1
							{
								OFFSET 0.000000 -8.688499 0.000000
								CHANNELS 3 Xrotation Yrotation Zrotation
								End Site
								{
									OFFSET 0.000000 8.688499 0.000000
								}
							}
						}
					}
				}
				JOINT newVegas:RightShoulder
				{
					OFFSET -15.263000 10.923401 -0.547700
					CHANNELS 3 Xrotation Yrotation Zrotation
					JOINT newVegas:RightArm
					{
						OFFSET -25.438599 -2.830597 -13.032500
						CHANNELS 3 Xrotation Yrotation Zrotation
						JOINT newVegas:RightForeArm
						{
							OFFSET -29.960503 0.000000 0.000000
							CHANNELS 3 Xrotation Yrotation Zrotation
							JOINT newVegas:RightHand
							{
								OFFSET -27.849251 0.000000 0.000000
								CHANNELS 3 Xrotation Yrotation Zrotation
								JOINT newVegas:RightHandThumb1
								{
									OFFSET -4.487587 -3.305161 6.305391
									CHANNELS 3 Xrotation Yrotation Zrotation
									JOINT newVegas:RightHandThumb2
									{
										OFFSET -5.480453 -3.164139 3.164143
										CHANNELS 3 Xrotation Yrotation Zrotation
										JOINT newVegas:RightHandThumb3
										{
											OFFSET -5.159721 -2.978973 2.978967
											CHANNELS 3 Xrotation Yrotation Zrotation
											End Site
											{
												OFFSET -2.494507 5.926697 1.738678
											}
										}
									}
								}
								JOINT newVegas:RightHandIndex1
								{
									OFFSET -18.578728 -0.527832 5.208049
									CHANNELS 3 Xrotation Yrotation Zrotation
									JOINT newVegas:RightHandIndex2
									{
										OFFSET -3.192009 0.000000 0.000000
										CHANNELS 3 Xrotation Yrotation Zrotation
										JOINT newVegas:RightHandIndex3
										{
											OFFSET -3.835129 0.000000 0.000000
											CHANNELS 3 Xrotation Yrotation Zrotation
											End Site
											{
												OFFSET 0.034599 3.816971 0.371180
											}
										}
									}
								}
								JOINT newVegas:RightHandMiddle1
								{
									OFFSET -18.476105 0.000000 0.000000
									CHANNELS 3 Xrotation Yrotation Zrotation
									JOINT newVegas:RightHandMiddle2
									{
										OFFSET -3.324875 0.000000 0.000000
										CHANNELS 3 Xrotation Yrotation Zrotation
										JOINT newVegas:RightHandMiddle3
										{
											OFFSET -4.596550 0.000000 0.000000
											CHANNELS 3 Xrotation Yrotation Zrotation
											End Site
											{
												OFFSET -0.057701 4.578827 0.399218
											}
										}
									}
								}
								JOINT newVegas:RightHandRing1
								{
									OFFSET -17.732719 0.121887 -4.201567
									CHANNELS 3 Xrotation Yrotation Zrotation
									JOINT newVegas:RightHandRing2
									{
										OFFSET -2.733170 0.000000 0.000000
										CHANNELS 3 Xrotation Yrotation Zrotation
										JOINT newVegas:RightHandRing3
										{
											OFFSET -3.178268 0.000000 0.000000
											CHANNELS 3 Xrotation Yrotation Zrotation
											End Site
											{
												OFFSET -0.119102 3.170624 0.185394
											}
										}
									}
								}
								JOINT newVegas:RightHandPinky1
								{
									OFFSET -15.989624 -0.606689 -7.535461
									CHANNELS 3 Xrotation Yrotation Zrotation
									JOINT newVegas:RightHandPinky2
									{
										OFFSET -2.538986 0.000000 0.000000
										CHANNELS 3 Xrotation Yrotation Zrotation
										JOINT newVegas:RightHandPinky3
										{
											OFFSET -2.593102 0.000000 0.000000
											CHANNELS 3 Xrotation Yrotation Zrotation
											End Site
											{
												OFFSET 0.150902 2.584198 0.152708
											}
										}
									}
								}
							}
							JOINT newVegas:Right_CapeC
							{
								OFFSET -15.715958 -8.608795 -6.935905
								CHANNELS 3 Xrotation Yrotation Zrotation
								JOINT newVegas:Right_CapeC1
								{
									OFFSET 0.000000 -8.688499 0.000000
									CHANNELS 3 Xrotation Yrotation Zrotation
									End Site
									{
										OFFSET 0.000000 8.688499 0.000000
									}
								}
							}
							JOINT newVegas:Right_Sleeve
							{
								OFFSET -0.267448 -0.649994 0.577675
								CHANNELS 3 Xrotation Yrotation Zrotation
								End Site
								{
									OFFSET 0.000000 15.991302 0.000000
								}
							}
						}
						JOINT newVegas:Right_CapeA
						{
							OFFSET -5.115540 -8.608795 -10.395824
							CHANNELS 3 Xrotation Yrotation Zrotation
							JOINT newVegas:Right_CapeA1
							{
								OFFSET 0.000000 -8.688499 0.000000
								CHANNELS 3 Xrotation Yrotation Zrotation
								End Site
								{
									OFFSET 0.000000 8.688499 0.000000
								}
							}
						}
						JOINT newVegas:Right_CapeB
						{
							OFFSET -26.118187 -8.608795 -7.079266
							CHANNELS 3 Xrotation Yrotation Zrotation
							JOINT newVegas:Right_CapeB1
							{
								OFFSET 0.000000 -8.688499 0.000000
								CHANNELS 3 Xrotation Yrotation Zrotation
								End Site
								{
									OFFSET 0.000000 8.688499 0.000000
								}
							}
						}
					}
				}
				JOINT newVegas:Left_Collar
				{
					OFFSET 18.625099 8.655502 8.828100
					CHANNELS 3 Xrotation Yrotation Zrotation
					JOINT newVegas:Left_Collar1
					{
						OFFSET 14.783401 10.540405 -1.259500
						CHANNELS 3 Xrotation Yrotation Zrotation
						End Site
						{
							OFFSET 0.000000 18.199875 0.000000
						}
					}
				}
				JOINT newVegas:Collar_Back
				{
					OFFSET 0.000000 15.630707 -20.132601
					CHANNELS 3 Xrotation Yrotation Zrotation
					End Site
					{
						OFFSET 0.000000 22.523010 0.000000
					}
				}
				JOINT newVegas:Left_Peck
				{
					OFFSET 17.239599 -5.132599 25.482599
					CHANNELS 3 Xrotation Yrotation Zrotation
					End Site
					{
						OFFSET 0.000000 22.523010 0.000000
					}
				}
				JOINT newVegas:Right_Peck
				{
					OFFSET -17.239599 -5.132202 25.482599
					CHANNELS 3 Xrotation Yrotation Zrotation
					End Site
					{
						OFFSET 0.000000 22.523010 0.000000
					}
				}
				JOINT newVegas:Right_Collar
				{
					OFFSET -18.625099 8.655792 8.828100
					CHANNELS 3 Xrotation Yrotation Zrotation
					JOINT newVegas:Right_Collar1
					{
						OFFSET -14.783401 10.539993 -1.259500
						CHANNELS 3 Xrotation Yrotation Zrotation
						End Site
						{
							OFFSET 0.000000 18.199631 0.000000
						}
					}
				}
			}
		}
		JOINT newVegas:Belly
		{
			OFFSET 0.000000 -6.540398 9.014299
			CHANNELS 3 Xrotation Yrotation Zrotation
			End Site
			{
				OFFSET 0.000000 11.566666 0.000000
			}
		}
	}
	JOINT newVegas:ElvisFacialAnim_Joint
	{
		OFFSET 1.000000 -95.330101 -8.825800
		CHANNELS 3 Xrotation Yrotation Zrotation
		End Site
		{
			OFFSET 0.000000 35.315800 0.000000
		}
	}
}
MOTION
Frames: 4
Frame Time: 0.016667
-5.935015 98.680298 185.044434 19.865170 8.853739 -0.874676 0.000000 -0.000001 0.000000 -25.666184 9.066043 13.355268 50.570581 18.414395 -0.612532 19.449606 -0.829173 5.160760 0.000001 0.000003 0.000000 -0.000001 -0.000001 0.000000 -67.166496 -24.965810 -14.879477 41.554830 3.268075 -12.729386 37.736713 2.190753 2.135430 -0.000002 0.000001 -0.000000 -0.000000 0.000001 -0.000000 -2.297627 -0.620337 0.032677 -4.594410 -1.061327 0.101277 -4.594413 -1.061325 0.101278 -0.990492 0.565844 -1.144411 -0.990494 0.565842 -1.144411 0.000000 -0.000001 0.000000 -0.990555 0.565835 -1.144408 -0.990412 0.565859 -1.144414 -0.000000 0.000000 -0.000000 0.000000 -0.000001 0.000000 10.044625 0.256261 32.051216 -48.561709 -10.210822 11.799410 -38.609881 -41.548505 -5.423205 -8.226033 -2.522792 4.213905 -23.472522 9.007662 3.988085 -11.828231 8.162152 13.621954 0.000000 -0.000003 -0.000007 0.517261 -9.570573 -64.785478 -8.375099 -2.932939 -78.721591 -0.000000 -0.000001 0.000001 -5.938104 -5.207436 -62.769630 -4.744694 -4.396660 -66.090113 0.000000 0.000001 -0.000003 -10.844891 5.489503 -65.803887 -0.072864 -6.647476 -74.360037 0.000002 0.000001 -0.000001 -15.557598 3.779203 -61.887757 0.800041 -8.229632 -69.702996 0.000003 -0.000002 -0.000001 -0.000001 0.000001 0.000001 -0.000001 0.000001 0.000001 -0.000000 0.000000 0.000001 -0.000002 -0.000003 0.000002 -0.000002 -0.000002 0.000001 -0.000002 -0.000003 0.000002 -0.000003 -0.000003 0.000001 -8.323182 -24.135447 -40.312688 -89.460356 26.675446 38.968241 -28.899589 50.290871 -7.128681 27.282129 -4.258684 14.891564 -17.327360 6.468787 -26.575890 3.068463 -20.322330 1.170435 0.000000 -0.000001 0.000001 -7.162293 5.305822 74.913132 -5.538912 0.850712 81.608029 0.000000 -0.000000 -0.000000 -11.692888 2.849391 77.860291 -5.590904 1.103063 82.945373 -0.000002 0.000000 -0.000001 -13.276880 -6.839420 73.034892 -0.147262 7.076626 77.106525 0.000000 0.000001 0.000000 -17.725126 -11.413789 72.297648 1.238869 11.805344 72.406009 0.000001 -0.000000 -0.000001 0.000000 0.000001 0.000001 0.000000 0.000000 -0.000000 0.000000 0.000001 0.000001 0.000000 -0.000002 -0.000002 0.000001 -0.000002 -0.000002 0.000000 -0.000002 -0.000002 0.000002 -0.000002 -0.000001 0.000000 -0.000000 -0.000000 0.000000 -0.000000 -0.000000 0.000000 -0.000000 -0.000000 0.000000 -0.000000 -0.000000 0.000000 -0.000000 -0.000000 0.000000 -0.000000 -0.000000 0.000000 -0.000000 -0.000000 0.000001 0.000000 -0.000000 0.000000 -0.000001 0.000000 
-5.950953 97.108414 188.945251 17.727657 9.494088 -1.022153 0.000001 0.000000 -0.000000 -24.162148 7.358377 12.991664 49.561058 20.169240 -1.939721 18.247994 -1.313870 4.706958 -0.000000 0.000000 -0.000000 -0.000002 -0.000002 -0.000001 -68.292070 -24.576617 -14.676620 43.539936 2.777235 -13.082339 36.951549 1.148575 0.636326 -0.000003 -0.000000 0.000001 0.000000 -0.000000 -0.000000 -2.114316 -0.716283 0.009651 -4.226089 -1.236036 0.160241 -4.226096 -1.236038 0.160240 -0.699730 0.603230 -1.022430 -0.699731 0.603231 -1.022430 -0.000000 0.000000 -0.000000 -0.699729 0.603227 -1.022430 -0.699728 0.603231 -1.022431 -0.000000 0.000001 -0.000000 -0.000000 0.000000 -0.000000 9.560694 1.178735 31.958605 -47.982140 -11.494727 12.850403 -37.736191 -39.139576 -4.480669 -9.326620 -3.180891 7.039136 -23.461910 9.089827 3.969080 -11.828235 8.162140 13.621959 0.000003 -0.000002 0.000000 0.903551 -9.378166 -63.393369 -8.389060 -2.928308 -78.861214 -0.000000 -0.000000 0.000001 -5.628309 -5.175347 -61.629999 -4.775325 -4.405123 -66.429067 -0.000002 0.000001 -0.000002 -10.813722 5.370619 -64.788449 -0.084339 -6.654568 -74.482803 0.000002 -0.000001 0.000003 -15.534567 3.805882 -61.859896 0.782684 -8.240943 -69.919724 0.000004 0.000002 0.000000 0.000001 -0.000000 -0.000000 0.000001 -0.000000 -0.000000 0.000001 -0.000000 -0.000000 0.000001 0.000000 -0.000001 0.000000 -0.000001 -0.000003 0.000001 0.000000 -0.000001 -0.000001 -0.000001 -0.000001 -8.892187 -24.277771 -41.378239 -86.632712 27.564753 36.099408 -30.016588 48.103571 -7.287931 26.156956 -4.467104 12.106683 -17.327358 6.468817 -26.575897 3.068467 -20.322340 1.170426 0.000003 -0.000001 0.000001 -7.160161 4.909980 76.768861 -5.512915 0.851711 81.188512 0.000001 0.000000 -0.000000 -11.756442 2.716010 78.851290 -5.590529 1.102824 82.959928 -0.000000 0.000000 -0.000000 -13.231559 -7.033020 74.164448 -0.159604 7.085956 77.218813 -0.000001 -0.000001 0.000001 -17.608890 -11.756214 74.042857 1.242301 11.802481 72.382971 0.000003 -0.000004 0.000003 0.000000 -0.000001 -0.000000 0.000000 -0.000000 -0.000000 0.000000 -0.000001 -0.000001 -0.000001 0.000001 -0.000002 -0.000001 0.000002 -0.000004 -0.000001 0.000001 -0.000002 -0.000000 0.000002 -0.000002 0.000000 0.000000 0.000000 0.000000 0.000000 0.000000 0.000000 0.000000 0.000000 0.000000 0.000000 0.000000 0.000000 0.000000 0.000000 0.000000 0.000000 0.000000 0.000000 0.000000 0.000000 0.000001 -0.000001 0.000000 0.000001 0.000000 -0.000000 
-5.937153 95.568420 192.708099 15.551337 10.167362 -1.160043 -0.000001 -0.000000 0.000000 -23.857728 5.111391 12.486353 50.207290 21.306650 -3.222592 16.275291 -1.846342 3.437565 0.000002 -0.000001 -0.000003 0.000001 -0.000003 0.000000 -69.309898 -24.196077 -14.395397 46.140773 2.214108 -13.791097 35.622671 0.142061 -0.479134 -0.000001 0.000001 0.000000 0.000000 0.000001 -0.000000 -1.882071 -0.833763 -0.009167 -3.758563 -1.458368 0.264352 -3.758560 -1.458363 0.264352 -0.481906 0.608975 -0.908316 -0.481888 0.608971 -0.908311 -0.000000 0.000001 -0.000000 -0.482048 0.608978 -0.908314 -0.481750 0.608954 -0.908315 0.000000 0.000001 -0.000000 -0.000000 0.000001 -0.000000 9.718427 1.273664 32.721923 -47.199841 -10.995440 14.448372 -37.509353 -36.402958 -3.708635 -10.609609 -4.159285 8.444631 -23.450761 9.176026 3.949053 -11.828234 8.162150 13.621978 0.000003 -0.000002 -0.000005 1.276618 -9.117632 -62.457060 -8.382876 -2.929995 -78.798417 0.000001 0.000001 0.000001 -5.280037 -5.045778 -60.690807 -4.795423 -4.410518 -66.652476 0.000000 0.000001 -0.000002 -10.792174 5.278060 -63.907020 -0.092899 -6.659772 -74.573508 0.000000 -0.000001 0.000000 -15.475091 3.969011 -62.080641 0.761136 -8.254723 -70.188827 -0.000001 -0.000003 -0.000004 -0.000001 -0.000000 0.000001 -0.000001 -0.000000 0.000001 -0.000001 -0.000000 0.000001 0.000000 0.000001 0.000001 -0.000001 0.000001 -0.000001 0.000000 0.000001 0.000001 -0.000002 -0.000000 0.000000 -8.350553 -23.530584 -42.083203 -83.150108 28.065853 30.864604 -31.664375 45.607471 -6.457743 24.627323 -4.700928 9.780974 -17.327353 6.468797 -26.575902 3.068470 -20.322331 1.170429 0.000000 -0.000000 -0.000000 -7.022607 4.477206 78.237672 -5.477267 0.852848 80.617611 0.000002 -0.000000 -0.000000 -11.748801 2.655342 79.261620 -5.590968 1.102369 83.000431 -0.000001 -0.000001 -0.000000 -13.176018 -7.192344 75.017416 -0.177995 7.099728 77.385408 -0.000001 -0.000001 -0.000000 -17.476378 -12.103225 75.594020 1.245878 11.799171 72.352126 -0.000000 -0.000000 0.000000 0.000002 -0.000001 0.000000 0.000002 -0.000001 0.000000 0.000002 -0.000001 0.000000 -0.000000 -0.000001 -0.000000 -0.000000 0.000000 -0.000001 -0.000000 -0.000001 -0.000000 -0.000000 -0.000000 -0.000000 0.000000 0.000000 -0.000000 0.000000 0.000000 -0.000000 0.000000 0.000000 -0.000000 0.000000 0.000000 -0.000000 0.000000 0.000000 -0.000000 0.000000 0.000000 -0.000000 0.000000 0.000000 -0.000000 -0.000001 -0.000000 0.000000 -0.000001 -0.000000 0.000000 
-5.912010 94.783394 196.287109 13.422964 10.864878 -1.329557 0.000000 -0.000000 -0.000000 -24.464201 4.394050 11.755973 49.793168 20.761239 -3.044215 14.642192 -2.227315 2.072583 -0.000003 0.000003 -0.000003 -0.000001 -0.000003 0.000003 -68.763906 -24.289024 -14.279821 46.426076 1.420406 -13.660906 34.949764 -0.210526 -2.352325 0.000002 -0.000000 0.000001 0.000000 -0.000001 -0.000001 -1.575953 -0.977393 0.032653 -3.141671 -1.730182 0.476075 -3.141673 -1.730181 0.476075 -0.433598 0.550090 -0.905506 -0.433598 0.550088 -0.905505 0.000000 -0.000001 0.000000 -0.433524 0.550090 -0.905507 -0.433528 0.550085 -0.905505 0.000000 -0.000001 -0.000000 0.000000 -0.000001 0.000000 10.358787 0.430481 33.938653 -46.303048 -6.882810 15.495935 -38.881856 -37.359499 -3.729812 -11.776477 -3.759856 8.715731 -23.439380 9.263858 3.928533 -11.828226 8.162112 13.621960 -0.000000 -0.000001 -0.000003 1.545939 -8.908081 -61.901082 -8.376381 -2.931797 -78.732718 0.000000 -0.000000 0.000004 -5.021051 -4.932630 -60.084798 -4.812826 -4.415212 -66.846891 0.000001 -0.000001 0.000004 -10.776116 5.182470 -63.138979 -0.100362 -6.664272 -74.651324 -0.000000 0.000001 -0.000001 -15.429572 4.090079 -62.244484 0.743174 -8.265987 -70.408506 -0.000001 0.000000 -0.000002 -0.000001 0.000000 0.000001 -0.000001 0.000000 0.000001 -0.000002 0.000000 0.000001 0.000002 0.000001 0.000002 0.000001 0.000000 0.000002 0.000002 0.000001 0.000002 -0.000000 -0.000000 0.000001 -7.764607 -22.718971 -42.791108 -79.909757 26.708357 26.192529 -32.094711 45.832827 -5.888943 22.708537 -5.865425 8.746425 -17.327357 6.468830 -26.575897 3.068448 -20.322285 1.170417 0.000002 -0.000000 -0.000001 -6.865594 4.152964 79.210319 -5.445862 0.853590 80.114759 0.000000 -0.000001 -0.000000 -11.662154 2.647370 79.130050 -5.594086 1.101178 83.123969 -0.000000 -0.000000 -0.000000 -13.125731 -7.256939 75.195028 -0.202113 7.117664 77.603428 0.000000 0.000002 0.000001 -17.379276 -12.303845 76.241481 1.231307 11.811475 72.469379 0.000004 -0.000004 -0.000000 -0.000001 -0.000000 -0.000000 -0.000001 -0.000001 0.000000 -0.000001 0.000000 -0.000001 -0.000001 0.000003 -0.000002 -0.000001 0.000003 -0.000003 -0.000001 0.000003 -0.000002 -0.000001 0.000003 -0.000002 0.000000 0.000000 0.000000 0.000000 0.000000 0.000000 0.000000 0.000000 0.000000 0.000000 0.000000 0.000000 0.000000 0.000000 0.000000 0.000000 0.000000 0.000000 0.000000 0.000000 0.000000 0.000001 -0.000001 -0.000000 0.000000 -0.000000 -0.000000 
